inDegrees=no
num_controls=7
num_derivatives=13
num_iterations=99
num_multipliers=7
num_parameters=0
num_slacks=7
num_states=26
objective=5.538594
objective_accelerations=0.757230
objective_balance=0.045760
objective_effort=0.313119
objective_height=4.329384
objective_ligament=0.093100
solver_duration=1124.489299
status=Solve_Succeeded
success=true
DataType=double
version=3
OpenSimVersion=4.4-2022-07-23-0e9fedc
endheader
time	/jointset/ground_pelvis/pelvis_tilt/value	/jointset/ground_pelvis/pelvis_tx/value	/jointset/ground_pelvis/pelvis_ty/value	/jointset/hip_l/hip_flexion_l/value	/jointset/hip_l/hip_adduction_l/value	/jointset/hip_l/hip_rotation_l/value	/jointset/back/lumbar_extension/value	/jointset/patellofemoral_l/patellar_flexion_l/value	/jointset/knee_l/knee_flexion_l/value	/jointset/knee_l/knee_adduction_l/value	/jointset/knee_l/knee_rotation_l/value	/jointset/ankle_l/ankle_angle_l/value	/jointset/subtalar_l/subtalar_angle_l/value	/jointset/ground_pelvis/pelvis_tilt/speed	/jointset/ground_pelvis/pelvis_tx/speed	/jointset/ground_pelvis/pelvis_ty/speed	/jointset/hip_l/hip_flexion_l/speed	/jointset/hip_l/hip_adduction_l/speed	/jointset/hip_l/hip_rotation_l/speed	/jointset/back/lumbar_extension/speed	/jointset/patellofemoral_l/patellar_flexion_l/speed	/jointset/knee_l/knee_flexion_l/speed	/jointset/knee_l/knee_adduction_l/speed	/jointset/knee_l/knee_rotation_l/speed	/jointset/ankle_l/ankle_angle_l/speed	/jointset/subtalar_l/subtalar_angle_l/speed	/forceset/tau_hip_flexion_l	/forceset/tau_hip_adduction_l	/forceset/tau_hip_rotation_l	/forceset/tau_knee_flexion_l	/forceset/tau_ankle_angle_l	/forceset/tau_subtalar_angle_l	/forceset/tau_lumbar_extension	lambda_cid13_p0	lambda_cid13_p1	lambda_cid13_p2	lambda_cid13_p3	lambda_cid13_p4	lambda_cid13_p5	lambda_cid14_p0	/jointset/ground_pelvis/pelvis_tilt/accel	/jointset/ground_pelvis/pelvis_tx/accel	/jointset/ground_pelvis/pelvis_ty/accel	/jointset/hip_l/hip_flexion_l/accel	/jointset/hip_l/hip_adduction_l/accel	/jointset/hip_l/hip_rotation_l/accel	/jointset/back/lumbar_extension/accel	/jointset/patellofemoral_l/patellar_flexion_l/accel	/jointset/knee_l/knee_flexion_l/accel	/jointset/knee_l/knee_adduction_l/accel	/jointset/knee_l/knee_rotation_l/accel	/jointset/ankle_l/ankle_angle_l/accel	/jointset/subtalar_l/subtalar_angle_l/accel	gamma_cid13_p0	gamma_cid13_p1	gamma_cid13_p2	gamma_cid13_p3	gamma_cid13_p4	gamma_cid13_p5	gamma_cid14_p0
1	-0.6563308366487279	-0.1293827171033382	0.5533483622651805	2.000514562011702	-0.4624817224709779	-1.125747276817067e-05	-0.2617844903201603	1.337846687175649	1.337846687175763	-0.09082178335346298	-0.1745230129603649	0.1081557186765177	-0.06530719985175955	-0.01822737987771532	0.01155814316613886	0.004022802605724518	-0.002741154921900536	-0.001574489698122131	0.002364465133209597	-2.672799605351672e-05	0.00205462624826503	0.002054626248267342	-0.003114773221560845	-0.0001675187691249268	0.02340729434427088	0.01022010782296106	-0.3924334734029263	0.004592101018977841	-0.001139398950364793	-0.2631127580949583	0.08867519426260115	0.04052822124765831	0.322013768899927	-12.46331738385507	-16.12083332087545	3.035652861015519	3.326709109655213	-651.5268698914799	-37.63653719860838	-2.515593331377363	1.864022818561546	0.3725840954380722	2.094964566257102	-7.499012456256779	-0.108039011443564	-2.296764868978558	-0.02518748930198996	-5.179798490509484	-5.179798490509383	-0.5850749109898398	-0.03213026734079857	-0.1951185551536401	-0.1926173921390872	5.621300069421049e-09	1.71591745171624e-08	-1.408654283993273e-08	2.008496206796349e-09	-2.054796961558459e-09	1.809082527230572e-08	3.143324908238679e-09
1.01	-0.656421066876491	-0.129248592921402	0.5534931837252308	2.000113703706965	-0.4625017210118356	-0.0001035216182037552	-0.2617847653422526	1.337608247787085	1.337608247787299	-0.09087940614222935	-0.1745250435608152	0.108380144341372	-0.06521323528531212	0.000183490009901188	0.0152693652530728	0.0249369352985776	-0.07742159906228646	-0.002418673710545395	-0.02081159689589553	-2.797802560763969e-05	-0.04974045058208389	-0.0497404505820823	-0.008407093476780619	-0.0002321286351366175	0.02147046837362994	0.008576347377665709	-0.3923251799126783	0.004739607631164335	-0.001154517882940098	-0.2629695604571608	0.08845831093609859	0.04053176367646547	0.3219381020351938	-12.519636374005	-16.11493010597756	3.037475134672245	3.275745170009651	-651.3814270321611	-37.64396048397005	-2.522244666764116	1.829941139145531	0.370792347637026	2.088952084926329	-7.451225869037026	-0.07162624476264554	-2.327177624713017	0.01245099917456036	-5.179052487406594	-5.179052487406746	-0.5009099345390093	0.007351577178464651	-0.1940693279192555	-0.1497283101964315	-2.338425509000161e-09	8.688673900898394e-09	2.386472381618852e-08	1.397710375498162e-09	-1.199954270377468e-08	7.384740515751226e-08	-8.809605684264996e-09
1.02	-0.6563271239923123	-0.1290772763021325	0.5538470094050347	1.998966307865585	-0.4625299650225446	-0.0004273765349823538	-0.261785043912858	1.336851919588603	1.336851919588939	-0.0909898720039521	-0.1745275246747771	0.1085849808045344	-0.06513560291121187	0.01860724250885036	0.01899663063280471	0.04582364655657454	-0.1520486622469702	-0.003223583667767863	-0.04395368911847097	-2.743769690771227e-05	-0.1015231357367936	-0.1015231357367931	-0.01368338780203967	-0.0002576215647561691	0.01948945400698766	0.006953669353495679	-0.3922168864226237	0.004887114243170068	-0.001169636815934928	-0.2628263628193448	0.08824142760957381	0.04053530610505823	0.3218624351702751	-12.57976222906319	-16.10901693025939	3.0400459647549	3.22892001945794	-651.2938245034218	-37.63197630604493	-2.542868633554367	1.866599340828266	0.3757927539973885	2.089480279285867	-7.488336265116205	-0.1001842004024473	-2.2899709076716	-0.02482941765142528	-5.177320155381975	-5.177320155381948	-0.5818697249973676	-0.02430688006064101	-0.2039562343542443	-0.1884009079131075	-1.049730403952252e-08	-1.096746343048521e-10	6.209609034605106e-08	8.950869965061392e-10	-2.21003094787747e-08	1.297546026883812e-07	-2.090635949594746e-08
1.03	-0.656048828423454	-0.1288685669684579	0.5544094837940748	1.997073058204238	-0.4625659914753483	-0.0009823791861932744	-0.2617853177553018	1.335577912714683	1.335577912714834	-0.09115301934732874	-0.1745300378722328	0.1087696914165961	-0.06507406024639625	0.03705809828981754	0.02275176314980287	0.06665857403035011	-0.2265765587937495	-0.003967028701588138	-0.06703031884358203	-2.698551087891631e-05	-0.1532679958570455	-0.1532679958570442	-0.01894215205959326	-0.0002339834436466251	0.01743601872728335	0.005362888972055899	-0.3917578882749501	0.00513743582356717	-0.001213532642230143	-0.2626163948055036	0.08808392762415168	0.0405861556429634	0.321555346487759	-12.60241984384518	-16.13543521038847	3.053740007726099	3.119870422177091	-650.9151807577439	-37.68450187283214	-2.577663107986536	1.835258666043879	0.3763526324414276	2.078593896507369	-7.431314366653049	-0.05922935589697958	-2.31405101885746	0.01253432830805847	-5.171525788594879	-5.171525788594671	-0.4973019296071307	0.01738106848698561	-0.2085336490118058	-0.1432231683822058	-1.86582147430255e-08	-8.911368556436048e-09	1.003303150378906e-07	3.93567316007037e-10	-3.220266830512965e-08	1.856633371340019e-07	-3.30045808914991e-08
1.04	-0.655585838302927	-0.1286221104832343	0.5551799264408689	1.994435269973963	-0.462609013318696	-0.001767656537422258	-0.2617855767175828	1.333786765869901	1.333786765869903	-0.09136863876394785	-0.1745319783066182	0.1089333683810148	-0.06502818669841952	0.05554615284328392	0.02654606094260839	0.08741729810750214	-0.3009563760282981	-0.004622661776427637	-0.09000862912577376	-2.446166173969499e-05	-0.2049511299072248	-0.2049511299072234	-0.02417780245605316	-0.0001430689109322921	0.01528272447824128	0.003819845985694126	-0.3912988901274203	0.005387757403991129	-0.0012574284685014	-0.2624064267916437	0.08792642763875763	0.04063700518091388	0.3212482578050696	-12.62896275363543	-16.16183910149268	3.068192521484968	3.015396717804888	-650.5954306968803	-37.7181522143582	-2.626864072065677	1.874039095328317	0.3836258091585295	2.074239599961159	-7.458720402669914	-0.08262180860509764	-2.270307019086458	-0.02441508502960484	-5.164974941367876	-5.164974941367991	-0.5772469527782185	-0.01085159773751768	-0.2239280282221844	-0.1788534288963477	-2.594097275074334e-08	-1.589476129917775e-08	1.384822920106033e-07	6.673870965869039e-10	-4.137928673128383e-08	2.36113625401999e-07	-4.384405697232479e-08
